<svg height="512" viewBox="0 0 128 128" width="512" xmlns="http://www.w3.org/2000/svg"><g><g><path d="m105.014 59.563a4.461 4.461 0 1 0 -6.1 5.632c-2.58 3.974-8.736 6.183-12.58 6.183-12.5 0-13.35-9.422-13.35-9.422a6.2 6.2 0 0 0 0-12.407 6.27 6.27 0 0 0 -.755.051 8.584 8.584 0 1 0 -16.457 0 6.27 6.27 0 0 0 -.755-.051 6.2 6.2 0 0 0 0 12.407s-.85 9.422-13.35 9.422c-3.844 0-10-2.209-12.58-6.183a4.459 4.459 0 1 0 -6.1-5.632c-3.921-4-6.656-7.477-6.656-7.477l13.169 43.5h69l13.167-43.5s-2.732 3.477-6.653 7.477z" fill="#ffd236"/><path d="m64.003 67.086-4.409 8.132 4.409 8.131 4.41-8.131z" fill="#ff9f01"/><path d="m29.503 95.586h69v9.833h-69z" fill="#f67e02"/><g fill="#ff9f01"><path d="m27.927 90.378 1.576 5.208h69l1.577-5.208z"/><g><path d="m43.619 84.169a6.209 6.209 0 0 0 -6.208 6.209h12.417a6.209 6.209 0 0 0 -6.209-6.209z"/><path d="m84.388 84.169a6.209 6.209 0 0 0 -6.209 6.209h12.421a6.209 6.209 0 0 0 -6.212-6.209z"/></g><g><path d="m64 20.836a1.75 1.75 0 0 0 -1.75 1.75v8.667a1.75 1.75 0 0 0 3.5 0v-8.667a1.749 1.749 0 0 0 -1.75-1.75z"/><path d="m47.686 28.746a1.75 1.75 0 1 0 -2.475 2.474l6.129 6.129a1.75 1.75 0 0 0 2.475-2.474z"/><path d="m82.8 28.746a1.748 1.748 0 0 0 -2.474 0l-6.129 6.129a1.75 1.75 0 1 0 2.475 2.474l6.128-6.129a1.748 1.748 0 0 0 0-2.474z"/></g></g></g><g fill="#6a0000"><path d="m41 73.107c.23.011.453.018.671.018a1.75 1.75 0 0 0 0-3.5c-.163 0-.33 0-.5-.014a1.782 1.782 0 0 0 -1.833 1.663 1.749 1.749 0 0 0 1.662 1.833z"/><path d="m53.694 47.907a7.954 7.954 0 0 0 -.841 15.5 9.218 9.218 0 0 1 -6.431 5.617 1.751 1.751 0 0 0 .963 3.366c8.574-2.456 9.345-9.958 9.375-10.277a1.749 1.749 0 0 0 -1.743-1.913 4.453 4.453 0 1 1 .543-8.868 1.751 1.751 0 0 0 1.89-2.232 6.833 6.833 0 1 1 13.1 0 1.751 1.751 0 0 0 1.89 2.232 4.452 4.452 0 0 1 4.531 6.4 1.75 1.75 0 1 0 3.129 1.568 7.957 7.957 0 0 0 -5.8-11.394c.018-.247.027-.493.027-.74a10.333 10.333 0 1 0 -20.666 0c.006.248.015.494.033.741z"/><path d="m112.476 50.531a1.751 1.751 0 0 0 -2.184.47c-.023.029-2.043 2.587-5.044 5.782a6.214 6.214 0 0 0 -8.841 8.735 15.984 15.984 0 0 1 -10.074 4.107c-10.663 0-11.574-7.521-11.606-7.829a1.751 1.751 0 0 0 -3.487.314c.01.111 1.155 11.015 15.093 11.015 3.951 0 10.923-2.165 14.049-6.979a1.75 1.75 0 0 0 -.7-2.527 2.709 2.709 0 1 1 3.7-3.42 1.751 1.751 0 0 0 2.879.586c.478-.488.938-.969 1.379-1.434l-8.862 29.274h-18.492a4.459 4.459 0 0 1 6.591-1.948 1.75 1.75 0 1 0 1.957-2.9 7.955 7.955 0 0 0 -12.208 4.849h-25.252a7.952 7.952 0 0 0 -15.517 0h-6.635l-8.861-29.275c.441.465.9.946 1.379 1.434a1.751 1.751 0 0 0 2.879-.586 2.71 2.71 0 1 1 3.7 3.42 1.75 1.75 0 0 0 -.7 2.527 15.252 15.252 0 0 0 6.569 5.225 1.75 1.75 0 0 0 1.431-3.193 13.512 13.512 0 0 1 -4.02-2.665 6.15 6.15 0 0 0 1.76-4.325 6.218 6.218 0 0 0 -10.606-4.405c-3-3.195-5.021-5.753-5.044-5.782a1.75 1.75 0 0 0 -3.05 1.589l13.091 43.251v9.576a1.749 1.749 0 0 0 1.75 1.75h40.5a1.75 1.75 0 0 0 0-3.5h-38.75v-8.084l-.008-.007a1.76 1.76 0 0 0 -.067-.5l-.893-2.951h67.436l-.518 1.708h-59.792a1.75 1.75 0 1 0 0 3.5h59.342v6.334h-12.366a1.75 1.75 0 1 0 0 3.5h14.116a1.749 1.749 0 0 0 1.75-1.75v-9.576l13.092-43.251a1.75 1.75 0 0 0 -.866-2.059zm-68.86 35.386a4.463 4.463 0 0 1 4.1 2.708h-8.2a4.465 4.465 0 0 1 4.1-2.708z"/><path d="m64 65.333a1.75 1.75 0 0 0 -1.538.916l-4.409 8.132a1.75 1.75 0 0 0 0 1.668l4.409 8.132a1.749 1.749 0 0 0 3.076 0l4.409-8.132a1.75 1.75 0 0 0 0-1.668l-4.409-8.132a1.75 1.75 0 0 0 -1.538-.916zm0 14.342-2.419-4.46 2.419-4.46 2.419 4.46z"/><path d="m77.75 103.667h-1.25a1.75 1.75 0 0 0 0 3.5h1.25a1.75 1.75 0 0 0 0-3.5z"/><path d="m64 33a1.749 1.749 0 0 0 1.75-1.75v-8.667a1.75 1.75 0 0 0 -3.5 0v8.667a1.749 1.749 0 0 0 1.75 1.75z"/><path d="m51.337 37.347a1.75 1.75 0 0 0 2.475-2.475l-6.129-6.129a1.75 1.75 0 1 0 -2.475 2.475z"/><path d="m75.426 37.859a1.746 1.746 0 0 0 1.237-.512l6.129-6.129a1.75 1.75 0 0 0 -2.475-2.475l-6.129 6.129a1.75 1.75 0 0 0 1.238 2.987z"/></g></g></svg>