<svg height="512" viewBox="0 0 128 128" width="512" xmlns="http://www.w3.org/2000/svg"><g><g><path d="m79.615 63.916-15.699 15.698-43.214-46.315-4.365-16.963 16.962 4.365z" fill="#23c4e9"/><path d="m68.482 77.023h22.201v5.116h-22.201z" fill="#f67e02" transform="matrix(.707 -.707 .707 .707 -32.964 79.582)"/><path d="m110.172 94.472-15.7 15.7a5.117 5.117 0 0 0 7.236 0l8.463-8.463a5.117 5.117 0 0 0 .001-7.237z" fill="#f67e02"/><path d="m84.091 77.055h15.531v29.601h-15.531z" fill="#984d00" transform="matrix(.707 -.707 .707 .707 -38.048 91.857)"/><path d="m103.114 92.131-14.277 7.687-8.237-8.237 14.277-7.687z" fill="#ff9f01"/><path d="m71.765 73.514a1.746 1.746 0 0 1 -1.237-.514l-32.947-32.946a1.75 1.75 0 0 1 2.475-2.474l32.944 32.947a1.75 1.75 0 0 1 -1.238 2.987z" fill="#e9e1e0"/><path d="m93.666 61.881-31.785 31.784-8.333-3.682 36.435-36.436z" fill="#ff9f01"/></g><g fill="#6a0000"><path d="m43.268 32.4a1.75 1.75 0 1 0 2.387-2.56l-.676-.63a1.75 1.75 0 0 0 -2.387 2.561z"/><path d="m75.445 82.57.563-.562a1.75 1.75 0 0 0 -2.475-2.475l-.562.563a1.749 1.749 0 1 0 2.474 2.474z"/><path d="m111.405 93.232a1.75 1.75 0 0 0 -2.474 0l-1.121 1.121-15.5-15.5a1.75 1.75 0 0 0 -2.475 2.475l2.136 2.137-11.06 5.955-2.541-2.542 12.1-12.1a1.75 1.75 0 0 0 0-2.474l-2.381-2.381 6.811-6.808a1.749 1.749 0 0 0 .364-1.944l-3.684-8.334a1.748 1.748 0 0 0 -2.838-.53l-9.173 9.173-28.821-26.891a1.75 1.75 0 1 0 -2.388 2.558l28.732 26.81-5.33 5.33-31.71-31.71a1.75 1.75 0 1 0 -2.474 2.475l31.709 31.71-5.33 5.331-41.675-44.665-3.515-13.661 13.661 3.515 5.192 4.844a1.75 1.75 0 1 0 2.387-2.559l-5.517-5.148a1.739 1.739 0 0 0 -.758-.419l-16.962-4.361a1.75 1.75 0 0 0 -2.131 2.131l4.361 16.962a1.751 1.751 0 0 0 .416.758l42.064 45.079-9.173 9.173a1.75 1.75 0 0 0 .53 2.838l8.333 3.683a1.751 1.751 0 0 0 1.945-.364l6.806-6.805 2.379 2.381a1.75 1.75 0 0 0 2.474 0l1.126-1.121 3.44 3.446.007.007 8.229 8.229.008.008 4.125 4.125a1.75 1.75 0 0 0 2.475-2.475l-2.45-2.45 11.06-5.955 2.541 2.542-12.1 12.1a1.75 1.75 0 0 0 0 2.474 6.873 6.873 0 0 0 9.71 0l8.463-8.463a6.874 6.874 0 0 0 -.003-9.71zm-40.247-8.85a1.748 1.748 0 0 0 -2.474 0l-7.2 7.195-4.9-2.166 32.827-32.824 2.166 4.9-7.192 7.193-6.821 6.82a1.75 1.75 0 0 0 2.475 2.475l5.58-5.581 1.144 1.143-12.1 12.1v.005l-1.116 1.116zm17.991 13.275-5.649-5.652 11.058-5.955 5.652 5.65zm19.782 2.811-8.463 8.463a3.366 3.366 0 0 1 -3.176.889l11.75-11.75h.006l.768-.768a3.368 3.368 0 0 1 -.885 3.166z"/></g></g></svg>