<?xml version="1.0"?>
<svg xmlns="http://www.w3.org/2000/svg" id="Capa_1" enable-background="new 0 0 512 512" height="512px" viewBox="0 0 512 512" width="512px" class=""><g><circle cx="256" cy="256" fill="#ffd740" r="248.5" data-original="#FFD740"/><path d="m256 7.5c-5.038 0-10.036.168-15 .464 130.256 7.757 233.5 115.831 233.5 248.036s-103.244 240.279-233.5 248.037c4.964.295 9.962.463 15 .463 137.243 0 248.5-111.257 248.5-248.5s-111.257-248.5-248.5-248.5z" fill="#ffc400" data-original="#FFC400"/><path d="m472.828 283.21c-2.465 19.984-7.639 39.344-15.345 57.64-1.443 3.425-5.097 5.351-8.756 4.701-8.054-1.429-16.491 2.202-20.817 9.699-4.314 7.473-3.265 16.567 1.96 22.816 2.385 2.852 2.54 6.979.288 9.937-5.986 7.866-12.546 15.384-19.658 22.497-7.113 7.113-14.63 13.672-22.496 19.658-2.958 2.251-7.085 2.096-9.937-.288-6.249-5.225-15.343-6.274-22.816-1.96-7.497 4.326-11.128 12.763-9.699 20.817.649 3.659-1.277 7.313-4.701 8.756-18.296 7.707-37.656 12.881-57.64 15.346-3.675.453-7.158-1.735-8.43-5.212-2.799-7.655-10.148-13.116-18.78-13.116s-15.981 5.461-18.78 13.116c-1.272 3.478-4.755 5.666-8.43 5.212-19.984-2.465-39.344-7.639-57.64-15.346-3.425-1.443-5.351-5.097-4.701-8.756 1.429-8.053-2.202-16.491-9.699-20.817-7.474-4.314-16.567-3.266-22.816 1.96-2.852 2.385-6.979 2.54-9.937.288-7.866-5.986-15.384-12.546-22.496-19.658-7.113-7.113-13.672-14.63-19.658-22.497-2.251-2.958-2.096-7.085.288-9.937 5.225-6.249 6.274-15.343 1.96-22.816-4.327-7.497-12.764-11.128-20.817-9.699-3.659.649-7.313-1.277-8.756-4.701-7.707-18.296-12.881-37.656-15.345-57.64-.453-3.675 1.735-7.158 5.212-8.43 7.653-2.799 13.114-10.148 13.114-18.78s-5.461-15.981-13.116-18.78c-3.478-1.272-5.665-4.755-5.212-8.43 2.465-19.984 7.639-39.344 15.345-57.64 1.443-3.425 5.097-5.351 8.756-4.701 8.054 1.429 16.491-2.202 20.817-9.699 4.314-7.474 3.265-16.567-1.96-22.816-2.385-2.852-2.54-6.979-.288-9.937 5.986-7.866 12.546-15.384 19.658-22.497 7.113-7.113 14.63-13.672 22.496-19.658 2.958-2.251 7.085-2.096 9.937.288 6.249 5.225 15.343 6.274 22.816 1.96 7.497-4.326 11.128-12.763 9.699-20.817-.649-3.659 1.277-7.313 4.701-8.756 18.296-7.707 37.656-12.881 57.64-15.345 3.675-.453 7.158 1.735 8.43 5.212 2.8 7.655 10.149 13.116 18.781 13.116s15.981-5.461 18.78-13.116c1.272-3.478 4.755-5.665 8.43-5.212 19.983 2.465 39.344 7.639 57.64 15.345 3.425 1.443 5.351 5.097 4.701 8.756-1.429 8.053 2.202 16.491 9.699 20.817 7.474 4.314 16.567 3.266 22.816-1.96 2.852-2.385 6.979-2.54 9.937-.288 7.866 5.986 15.384 12.546 22.496 19.658 7.113 7.113 13.672 14.63 19.658 22.497 2.251 2.958 2.096 7.085-.288 9.937-5.225 6.249-6.274 15.343-1.96 22.816 4.327 7.497 12.764 11.128 20.817 9.699 3.659-.649 7.313 1.277 8.756 4.701 7.707 18.296 12.881 37.656 15.345 57.64.453 3.675-1.735 7.158-5.212 8.43-7.655 2.799-13.116 10.148-13.116 18.78s5.461 15.981 13.116 18.78c3.479 1.271 5.667 4.755 5.213 8.43z" fill="#ffab00" data-original="#FFAB00"/><path d="m384.196 303.755-75.75-9.031c-7.94-.947-14.673 5.787-13.725 13.727l9.04 75.737c.567 4.75-2.207 9.256-6.699 10.9-9.176 3.358-25.313 8.28-41.056 8.28-15.744 0-31.881-4.923-41.057-8.281-4.492-1.644-7.266-6.149-6.699-10.899l9.032-75.74c.947-7.939-5.786-14.672-13.726-13.725l-75.751 9.031c-4.751.566-9.258-2.208-10.9-6.702-3.355-9.176-8.271-25.311-8.271-41.052 0-15.742 4.917-31.876 8.271-41.052 1.643-4.494 6.149-7.269 10.9-6.702l75.752 9.031c7.94.947 14.672-5.786 13.726-13.725l-9.032-75.749c-.566-4.751 2.208-9.257 6.703-10.9 9.177-3.355 25.312-8.271 41.054-8.271s31.876 4.916 41.053 8.271c4.495 1.643 7.27 6.15 6.702 10.901l-9.04 75.746c-.948 7.94 5.785 14.673 13.725 13.727l75.75-9.031c4.751-.566 9.258 2.208 10.9 6.702 3.355 9.176 8.271 25.31 8.271 41.052s-4.917 31.876-8.271 41.052c-1.645 4.494-6.151 7.269-10.902 6.703z" fill="#ffd740" data-original="#FFD740"/><path d="m200.802 383.301c-.982 8.235 3.776 15.979 11.569 18.829 10.891 3.986 27.301 8.737 43.635 8.737 16.33 0 32.741-4.751 43.634-8.736 7.795-2.853 12.552-10.598 11.568-18.832l-9.04-75.737c-.243-2.035.765-3.383 1.387-4.005.621-.621 1.974-1.629 4.004-1.386l75.75 9.031c8.238.981 15.98-3.778 18.832-11.575 3.981-10.89 8.727-27.298 8.727-43.627s-4.745-32.737-8.727-43.628c-2.852-7.797-10.605-12.555-18.832-11.573l-75.751 9.03c-2.029.244-3.381-.764-4.004-1.386-.621-.622-1.629-1.97-1.386-4.004l9.04-75.746c.983-8.239-3.776-15.983-11.574-18.834-10.891-3.981-27.3-8.727-43.628-8.727-16.329 0-32.738 4.745-43.628 8.727-7.798 2.85-12.558 10.595-11.575 18.832l9.032 75.748c.243 2.035-.765 3.382-1.386 4.004-.622.622-1.975 1.63-4.004 1.387l-13.636-1.626c-4.114-.488-7.845 2.447-8.335 6.56-.49 4.112 2.446 7.845 6.559 8.335l13.637 1.626c6.083.729 12.055-1.344 16.387-5.675 4.331-4.332 6.399-10.304 5.674-16.386l-9.032-75.749c-.155-1.297.598-2.518 1.83-2.968 7.984-2.918 23.6-7.814 38.479-7.814 14.878 0 30.494 4.896 38.479 7.814 1.231.45 1.984 1.671 1.829 2.968l-9.04 75.747c-.726 6.083 1.343 12.056 5.674 16.388 4.332 4.331 10.308 6.399 16.387 5.674l75.75-9.03c1.299-.158 2.519.598 2.969 1.83 2.918 7.983 7.814 23.598 7.814 38.477s-4.896 30.493-7.814 38.476c-.45 1.233-1.651 1.988-2.969 1.832l-75.749-9.031c-6.093-.725-12.056 1.343-16.388 5.674-4.331 4.332-6.399 10.306-5.674 16.389l9.04 75.738c.155 1.296-.598 2.517-1.829 2.968-7.984 2.921-23.601 7.822-38.479 7.822-14.881 0-30.496-4.901-38.48-7.824-1.231-.45-1.984-1.67-1.829-2.967l9.032-75.74c.725-6.082-1.343-12.054-5.674-16.386-4.332-4.333-10.305-6.403-16.387-5.675l-75.75 9.032c-1.299.15-2.518-.598-2.969-1.831-2.919-7.983-7.815-23.597-7.815-38.477s4.896-30.493 7.816-38.478c.45-1.23 1.669-1.983 2.968-1.829l30.26 3.607c4.111.495 7.844-2.447 8.335-6.56.49-4.113-2.446-7.845-6.56-8.335l-30.26-3.607c-8.243-.978-15.982 3.778-18.832 11.574-3.981 10.889-8.728 27.297-8.728 43.627s4.746 32.738 8.727 43.626c2.851 7.798 10.589 12.565 18.833 11.576l75.75-9.032c2.034-.242 3.383.765 4.004 1.387.622.622 1.629 1.969 1.386 4.004z" data-original="#000000" class="active-path" data-old_color="#000000" style="fill:#984F00"/><path d="m396.691 42.093c-3.459-2.28-8.11-1.324-10.39 2.136-2.279 3.459-1.323 8.11 2.136 10.39 67.979 44.798 108.563 120.081 108.563 201.381 0 132.888-108.112 241-241 241s-241-108.112-241-241 108.112-241 241-241c37.002 0 72.497 8.161 105.499 24.256 3.725 1.816 8.213.269 10.028-3.453 1.815-3.724.27-8.214-3.453-10.029-35.067-17.102-72.774-25.774-112.074-25.774-68.38 0-132.667 26.629-181.02 74.98-48.351 48.352-74.98 112.64-74.98 181.02s26.629 132.668 74.98 181.02c48.353 48.351 112.64 74.98 181.02 74.98s132.668-26.629 181.02-74.98 74.98-112.64 74.98-181.02c0-86.358-43.106-166.324-115.309-213.907z" data-original="#000000" class="active-path" data-old_color="#000000" style="fill:#984F00"/><path d="m358.998 77.594c-4.542-2.621-6.979-7.85-6.063-13.01 1.274-7.184-2.497-14.165-9.175-16.979-18.986-7.997-39.05-13.339-59.633-15.876-7.165-.883-13.899 3.263-16.393 10.08-1.79 4.899-6.506 8.191-11.734 8.191s-9.944-3.292-11.736-8.191c-2.493-6.817-9.228-10.958-16.392-10.08-20.583 2.537-40.646 7.879-59.635 15.877-6.676 2.813-10.448 9.795-9.173 16.979.916 5.16-1.521 10.389-6.064 13.011-4.529 2.614-10.256 2.125-14.256-1.219-5.596-4.68-13.528-4.886-19.29-.503-8.146 6.2-15.971 13.038-23.258 20.323-7.283 7.282-14.121 15.107-20.324 23.258-4.384 5.762-4.176 13.694.504 19.29 3.343 3.998 3.832 9.728 1.218 14.257-2.621 4.543-7.851 6.984-13.011 6.063-7.182-1.271-14.166 2.497-16.978 9.175-7.997 18.982-13.338 39.046-15.877 59.632-.884 7.159 3.261 13.9 10.08 16.394 4.9 1.79 8.192 6.506 8.192 11.734s-3.292 9.944-8.191 11.735c-6.819 2.493-10.964 9.234-10.08 16.393 2.539 20.587 7.88 40.65 15.876 59.633 2.813 6.678 9.799 10.445 16.978 9.175 5.162-.916 10.39 1.521 13.012 6.063 2.614 4.529 2.125 10.259-1.217 14.255-4.681 5.597-4.889 13.529-.504 19.292 6.203 8.15 13.041 15.976 20.323 23.258 7.287 7.285 15.111 14.123 23.257 20.322 5.761 4.385 13.693 4.179 19.291-.502 3.998-3.345 9.727-3.833 14.257-1.218 4.542 2.621 6.979 7.85 6.063 13.01-1.275 7.185 2.498 14.166 9.174 16.979 3.822 1.61 7.744 3.134 11.654 4.528 3.9 1.39 8.191-.645 9.583-4.545 1.391-3.901-.644-8.192-4.545-9.584-3.647-1.301-7.304-2.722-10.87-4.224-.168-.07-.268-.305-.228-.533 2.015-11.354-3.344-22.857-13.334-28.622-9.958-5.749-22.568-4.665-31.377 2.701-.185.155-.437.188-.584.073-7.612-5.792-14.924-12.183-21.735-18.993-6.808-6.807-13.198-14.119-18.993-21.733-.113-.148-.082-.399.074-.586 7.365-8.808 8.45-21.417 2.702-31.376-5.766-9.991-17.27-15.35-28.624-13.335-.229.04-.463-.06-.534-.228-7.459-17.71-12.444-36.432-14.813-55.647-.023-.187.125-.388.344-.468 10.791-3.945 18.041-14.322 18.041-25.823s-7.25-21.878-18.041-25.823c-.219-.08-.367-.281-.343-.469 2.369-19.215 7.354-37.937 14.813-55.646.07-.169.305-.267.534-.228 11.355 2.011 22.858-3.345 28.623-13.335 5.749-9.959 4.663-22.568-2.702-31.377-.155-.185-.186-.437-.074-.584 5.795-7.615 12.186-14.928 18.993-21.734 6.811-6.811 14.124-13.201 21.735-18.993.147-.113.399-.083.584.073 8.807 7.365 21.417 8.449 31.376 2.702 9.992-5.766 15.351-17.269 13.335-28.623-.042-.232.057-.463.228-.534 17.713-7.461 36.435-12.444 55.647-14.813.18-.02.388.124.468.345 3.946 10.789 14.324 18.039 25.824 18.039 11.501 0 21.878-7.25 25.823-18.041.08-.221.29-.36.469-.344 19.211 2.369 37.934 7.353 55.645 14.813.172.072.271.303.229.535-2.015 11.355 3.345 22.857 13.334 28.622 9.963 5.75 22.57 4.663 31.378-2.702.185-.153.436-.186.584-.072 7.612 5.793 14.925 12.183 21.734 18.993 6.808 6.807 13.197 14.119 18.993 21.733.113.148.082.4-.073.585-7.365 8.809-8.451 21.418-2.702 31.376 5.767 9.991 17.268 15.352 28.624 13.336.242-.042.462.058.533.228 7.461 17.713 12.444 36.436 14.813 55.646.022.187-.125.389-.344.469-10.79 3.945-18.04 14.322-18.04 25.823s7.25 21.878 18.041 25.823c.219.08.366.282.344.469-2.369 19.211-7.353 37.934-14.813 55.645-.072.172-.3.272-.535.229-11.344-2.014-22.856 3.345-28.622 13.334-5.75 9.96-4.664 22.569 2.702 31.378.154.185.186.437.073.584-5.797 7.615-12.187 14.928-18.994 21.734-6.81 6.811-14.122 13.2-21.734 18.994-.147.112-.399.082-.584-.074-8.81-7.365-21.419-8.45-31.376-2.702-9.991 5.766-15.351 17.268-13.336 28.623.041.229-.06.463-.228.533-17.712 7.461-36.435 12.445-55.646 14.814-.191.006-.39-.125-.469-.344-3.945-10.79-14.322-18.04-25.823-18.04-11.5 0-21.878 7.25-25.824 18.041-.081.218-.292.356-.469.344-5.01-.617-10.066-1.427-15.027-2.405-4.06-.799-8.008 1.843-8.81 5.907-.801 4.063 1.843 8.008 5.907 8.81 5.314 1.048 10.729 1.915 16.095 2.575.643.079 1.28.118 1.913.118 6.42-.001 12.21-3.992 14.479-10.197 1.792-4.9 6.508-8.192 11.736-8.192s9.944 3.292 11.735 8.191c2.493 6.819 9.237 10.958 16.393 10.08 20.584-2.538 40.647-7.88 59.633-15.877 6.677-2.813 10.45-9.794 9.175-16.979-.916-5.16 1.521-10.389 6.064-13.011 4.527-2.613 10.258-2.125 14.255 1.218 5.597 4.682 13.529 4.886 19.291.504 8.147-6.2 15.972-13.038 23.258-20.323 7.282-7.282 14.119-15.107 20.323-23.259 4.384-5.762 4.176-13.694-.503-19.29-3.344-3.997-3.833-9.727-1.218-14.257 2.621-4.542 7.852-6.98 13.011-6.063 7.178 1.269 14.165-2.497 16.979-9.175 7.997-18.986 13.339-39.05 15.876-59.633.883-7.159-3.263-13.9-10.08-16.393-4.9-1.79-8.192-6.506-8.192-11.734s3.292-9.944 8.191-11.735c6.817-2.492 10.963-9.233 10.08-16.393-2.537-20.583-7.879-40.646-15.877-59.635-2.813-6.676-9.795-10.453-16.977-9.173-5.169.917-10.392-1.521-13.013-6.064-2.614-4.528-2.125-10.258 1.218-14.255 4.68-5.596 4.888-13.528.503-19.291-6.203-8.15-13.04-15.976-20.322-23.258-7.286-7.285-15.11-14.123-23.259-20.323-5.764-4.385-13.693-4.175-19.29.503-3.996 3.345-9.724 3.833-14.256 1.218z" data-original="#000000" class="active-path" data-old_color="#000000" style="fill:#984F00"/></g> </svg>
