<?xml version="1.0"?>
<svg xmlns="http://www.w3.org/2000/svg" id="Capa_1" enable-background="new 0 0 512 512" height="512px" viewBox="0 0 512 512" width="512px" class=""><g><path d="m311 474.5h-110s35-54.62 35-124.35h40c0 69.73 35 124.35 35 124.35z" fill="#ba68c8" data-original="#BA68C8" class=""/><path d="m276 350.15h-30c0 69.73 35 124.35 35 124.35h30s-35-54.62-35-124.35z" fill="#ab47bc" data-original="#AB47BC"/><path d="m276 350.153h-40c-8.284 0-15-6.716-15-15 0-8.284 6.716-15 15-15h40c8.284 0 15 6.716 15 15 0 8.285-6.716 15-15 15z" fill="#40c4ff" data-original="#40C4FF"/><path d="m276 320.153h-30c8.284 0 15 6.716 15 15s-6.716 15-15 15h30c8.284 0 15-6.716 15-15s-6.716-15-15-15z" fill="#00b0ff" data-original="#00B0FF"/><path d="m385 37.5h-258c-8.284 0-15-6.716-15-15 0-8.284 6.716-15 15-15h258c8.284 0 15 6.716 15 15 0 8.284-6.716 15-15 15z" fill="#ffc400" data-original="#FFC400"/><path d="m385 7.5h-30c8.284 0 15 6.716 15 15s-6.716 15-15 15h30c8.284 0 15-6.716 15-15s-6.716-15-15-15z" fill="#ffab00" data-original="#FFAB00"/><path d="m321 504.5h-130c-5.523 0-10-4.477-10-10 0-11.046 8.954-20 20-20h110c11.046 0 20 8.954 20 20 0 5.523-4.477 10-10 10z" fill="#40c4ff" data-original="#40C4FF"/><path d="m311 474.5h-30c11.046 0 20 8.954 20 20 0 5.523-4.477 10-10 10h30c5.523 0 10-4.477 10-10 0-11.046-8.954-20-20-20z" fill="#00b0ff" data-original="#00B0FF"/><path d="m373.6 117.78c4.51 44.36 10.67 94.88-44.65 127.65-55.33 32.77-49.45 74.72-49.45 74.72h-47s5.88-41.95-49.45-74.72c-55.32-32.77-49.16-83.29-44.65-127.65s-6.69-80.28-6.69-80.28h248.58s-11.2 35.92-6.69 80.28z" fill="#ffd740" data-original="#FFD740"/><path d="m380.29 37.5h-30s-11.2 35.92-6.69 80.28 10.67 94.88-44.65 127.65c-55.33 32.77-49.45 74.72-49.45 74.72h30s-5.88-41.95 49.45-74.72c55.32-32.77 49.16-83.29 44.65-127.65s6.69-80.28 6.69-80.28z" fill="#ffc400" data-original="#FFC400"/><g fill="#40c4ff"><ellipse cx="256" cy="114.5" rx="22.5" ry="30" data-original="#40C4FF"/><ellipse cx="135.5" cy="114.5" rx="22" ry="30" data-original="#40C4FF"/><ellipse cx="376.5" cy="114.5" rx="22" ry="30" data-original="#40C4FF"/></g><path d="m256 77c-16.542 0-30 16.822-30 37.5s13.458 37.5 30 37.5 30-16.822 30-37.5-13.458-37.5-30-37.5zm0 60c-8.131 0-15-10.304-15-22.5s6.869-22.5 15-22.5 15 10.304 15 22.5-6.869 22.5-15 22.5z" data-original="#000000" class="active-path" style="fill:#9B5100" data-old_color="#000000"/><path d="m380.848 77.388c1.25-14.589 3.665-26.127 5.202-32.413 11.921-.55 21.45-10.42 21.45-22.475 0-12.407-10.094-22.5-22.5-22.5h-192.615c-4.142 0-7.5 3.358-7.5 7.5s3.358 7.5 7.5 7.5h192.615c4.136 0 7.5 3.364 7.5 7.5s-3.364 7.5-7.5 7.5h-258c-4.136 0-7.5-3.364-7.5-7.5s3.364-7.5 7.5-7.5h33.18c4.142 0 7.5-3.358 7.5-7.5s-3.358-7.5-7.5-7.5h-33.18c-12.407 0-22.5 10.093-22.5 22.5 0 12.054 9.528 21.924 21.449 22.475 1.537 6.288 3.953 17.825 5.203 32.413-14.41 2.598-25.152 17.966-25.152 37.112 0 17.823 9.309 32.372 22.22 36.394-1.197 35.379 5.375 73.953 51.008 100.99 41.249 24.43 45.755 53.386 45.974 63.535-6.968 3.828-11.702 11.239-11.702 19.735 0 9.743 6.224 18.059 14.906 21.181-.613 20.163-4.208 40.921-10.711 61.801-1.232 3.955.976 8.159 4.931 9.391s8.159-.976 9.391-4.931c6.816-21.883 10.626-43.691 11.355-64.941h25.257c1.682 49.509 19.561 90.285 29.511 109.345h-84.315c1.944-3.74 4.196-8.323 6.577-13.651 1.69-3.782-.005-8.217-3.787-9.907s-8.218.006-9.907 3.787c-4.219 9.44-8.023 16.405-10.175 20.135-13.046 2.14-23.032 13.494-23.032 27.137 0 9.649 7.851 17.5 17.5 17.5h130c9.649 0 17.5-7.851 17.5-17.5 0-13.639-9.981-24.991-23.022-27.135-6.803-11.85-30.201-56.395-31.882-111.031 8.68-3.122 14.904-11.438 14.904-21.18 0-8.491-4.728-15.897-11.688-19.727.181-7.5 2.717-25.175 20.498-43.762 2.863-2.993 2.758-7.741-.235-10.604s-7.74-2.758-10.604.235c-19.404 20.284-23.747 40.359-24.506 51.355h-31.909c-1.012-15.125-8.771-47.37-53.182-73.672-9.362-5.547-16.81-11.627-22.707-18.112 9.795-2.806 15.869-9.484 20.983-15.107 6.096-6.703 10.5-11.546 19.915-11.546 9.416 0 13.82 4.843 19.917 11.546 6.667 7.331 14.964 16.454 31.013 16.454s24.346-9.124 31.013-16.454c6.096-6.703 10.5-11.546 19.915-11.546 9.417 0 13.821 4.843 19.918 11.546 5.116 5.625 11.192 12.304 20.994 15.109-8.151 8.961-15.781 13.829-24.807 19.376-3.531 2.166-4.637 6.784-2.471 10.314 2.168 3.536 6.789 4.634 10.314 2.471 37.592-23.018 54.649-50.783 52.911-102.135 12.907-4.023 22.217-18.573 22.217-36.396 0-19.146-10.743-34.514-25.152-37.112zm-57.348 417.112c0 1.378-1.121 2.5-2.5 2.5h-130c-1.378 0-2.5-1.122-2.5-2.5 0-6.893 5.607-12.5 12.5-12.5h110c6.893 0 12.5 5.607 12.5 12.5zm-47.365-151.848c-.045-.001-.09-.002-.135-.002h-40c-.045 0-.09.001-.135.002-4.073-.073-7.365-3.408-7.365-7.498 0-4.136 3.364-7.5 7.5-7.5h40c4.136 0 7.5 3.364 7.5 7.5 0 4.09-3.291 7.425-7.365 7.498zm-155.135-228.152c0-12.196 6.64-22.5 14.5-22.5 9.154 0 14.5 12.548 14.5 22.5 0 11.893-6.314 21.986-13.916 22.481-.197-.001-.393.005-.587.019-7.858-.002-14.497-10.305-14.497-22.5zm236.776 92.712c-9.362-.027-13.76-4.862-19.84-11.546-6.667-7.33-14.965-16.453-31.015-16.453-16.049 0-24.346 9.123-31.013 16.454-6.096 6.703-10.5 11.546-19.916 11.546s-13.82-4.843-19.917-11.546c-6.667-7.331-14.964-16.454-31.013-16.454s-24.345 9.123-31.012 16.454c-6.076 6.681-10.473 11.515-19.826 11.545-9.971-17.512-11.711-37.019-10.991-56.464 12.675-4.217 21.767-18.634 21.767-36.248 0-16.125-7.62-29.571-18.633-34.965-1.043-14.704-3.243-26.74-4.993-34.535h229.252c-1.75 7.795-3.949 19.831-4.992 34.535-11.013 5.393-18.634 18.839-18.634 34.965 0 17.614 9.092 32.031 21.767 36.248.72 19.446-1.02 38.953-10.991 56.464zm18.724-70.212c-.002 0-.003 0-.005 0-.19-.013-.381-.02-.575-.019-7.603-.491-13.92-10.586-13.92-22.481 0-9.153 3.897-19.856 12.838-22.346 9.672-1.803 16.162 11.118 16.162 22.346 0 12.196-6.641 22.5-14.5 22.5z" data-original="#000000" class="active-path" style="fill:#9B5100" data-old_color="#000000"/></g> </svg>
